<?xml version="1.0" encoding="utf-8"?>

<svg version="1.1" id="Слой_1" xmlns="http://www.w3.org/2000/svg" xmlns:xlink="http://www.w3.org/1999/xlink" x="0px" y="0px"
	 viewBox="0 0 1024 1024" style="enable-background:new 0 0 1024 1024;" xml:space="preserve">
<style type="text/css">
	.st0{fill:#3B1B2A;}
	.st1{fill:#BB7A5A;}
	.st2{fill:#CBD2D8;}
	.st3{fill:#A1A3B0;}
	.st4{fill:#884F55;}
	.st5{opacity:0.37;fill:#3B1B2A;}
	.st6{fill:#D7DEE2;}
	.st7{opacity:0.16;fill:#3B1B2A;}
	.st8{opacity:0.39;fill:#3B1B2A;}
</style>
<g>
	<path class="st0" d="M957.2,872.8c-0.3-0.8-0.8-1.6-1.3-2.3c-16-20.8-45-34.9-72-34.9c-4.9,0-9.6,0.6-14.2,1.5
		c-37.6-54.8-76.5-107.2-111.2-152.9c32.5-22.2,68.4-40.8,108.1-53.2c4.9-1.5,7.7-6.6,6.3-11.5c-4.8-17.7-10.1-37.5-15.5-57.9
		c-9.9-37.5-20.2-76.3-29.7-108c-0.8-2.6-2.6-4.7-5-5.8c-1.3-0.6-2.7-0.9-4.1-0.9c-1.2,0-2.5,0.2-3.6,0.7
		c-21.9,9.1-44.7,21.5-71.9,38.9c-18.1,11.5-35.6,24-52.2,36.3C575.6,363.2,451.6,197,322.1,28.3l-2-2.5c-1.6-2.1-4-3.4-6.6-3.6
		L81.1,0c-0.3,0-0.6,0-0.9,0C78,0,75.8,0.8,74,2.3c-2,1.7-3.1,4.1-3.2,6.7L60.2,244c-0.1,2.4,0.7,4.8,2.4,6.7
		c27.1,30.7,54.6,61.3,82.3,92c42.4,47.1,86.3,95.9,128.1,144.6c55,63.2,121,136.6,201.1,223.6c-3.4,3.3-6.8,6.6-10.3,10l-71.6,70.8
		c-2.2,2.2-3.2,5.4-2.6,8.4c0.6,3.1,2.6,5.7,5.5,6.9c58.1,25.7,112.7,55.5,162.2,88.6l3.3,2.2c1.6,1,3.4,1.6,5.2,1.6
		c0.7,0,1.5-0.1,2.2-0.3c2.5-0.6,4.7-2.3,6-4.6l2-3.5c18.5-32,41.7-67.1,69.8-101.3c23.4,26.3,44.9,54.7,65.7,82.3
		c17.2,22.8,34.9,46.3,53.7,68.7c-0.9,26.3,1.4,52.9,19.9,74.8c1.3,1.5,2.9,2.5,4.8,3c14.4,3.8,30.2,5.7,48.3,5.7
		c7.4,0,15.3-0.3,25.2-1l4.8-0.5c21.5-2.3,45.9-4.8,65.1-19.6c0.9-0.7,1.6-1.5,2.2-2.4c15.4-23.9,23.8-53.5,25.8-91l0.1-3.7
		C961.4,896.1,961.6,883.8,957.2,872.8z"/>
	<path class="st1" d="M863.2,621.7c0,0-56.2,10-127.2,60.6c-29.2,20.8-61.1,48.4-92.6,85.1c-27.2,31.8-54.3,70.3-79.1,117
		c-81-51-160.6-87.1-160.6-87.1s37.2-36.7,91-86.1c56-51.4,129.8-116.7,198.1-168.7v-0.1c45.7-34.7,88.8-63.5,122.3-78.5
		C863.2,621.7,863.2,621.7,863.2,621.7z"/>
	<path class="st2" d="M692.8,542.4L692.8,542.4c-19.5,14.9-39.4,30.8-59.3,47.3c-27.9,23-55.7,47-81.8,70.1
		c-20.3,18-39.5,35.4-57,51.4L72.2,244.6L85.7,15.7l223.2,22.8L692.8,542.4z"/>
	<path class="st3" d="M633.5,589.7c-27.9,23-55.7,47-81.8,70.1L142.4,222.3L150.1,98l116.5,16.8L633.5,589.7z"/>
	<path class="st4" d="M868.8,853.7c-20,51.6-91.7,77-91.7,77L643.4,767.4v-0.1c31.5-36.7,63.3-64.3,92.6-85.1
		C736,682.3,783.4,747.1,868.8,853.7z"/>
	<path class="st1" d="M926.8,995c-19.1,14.9-98.6,16.7-131.4,9c-23.4-24.6-18.3-73.4-18.3-73.4s71.7-25.3,91.7-77
		c20.2-7.5,61.7,8.8,73.6,26.6C948.4,901.2,945.9,959.2,926.8,995z"/>
	<path class="st0" d="M863.8,622c-131.3,40.9-229.1,148-296.2,264.1c0,0-2,3.6-2,3.6l-3.3-2.2c-51.7-34.6-106.7-64.2-163.5-89.3
		c0,0,3-2.9,3-2.9l68.6-67.8c69.1-67.6,141.1-132,217.9-190.9c0,0-2.9,5.9-2.9,5.9c0-0.1,0-3.8,0-3.9c20.5-15.3,41.2-30.4,62.9-44.2
		c22.3-14.3,45.6-27.8,70.5-38.1C833.4,505.3,850.2,572.3,863.8,622L863.8,622z M862.6,621.3c-15.8-45.2-38.2-111.1-52.9-155.7
		c0,0,7.6,3.5,7.6,3.5c-43.1,20.9-81.9,50.5-120.1,79.3c0,0,3-6,3-6c0,0,0,3.7,0,3.7c0,0-3,2.3-3,2.3
		c-100.1,77.1-198,165.6-291.7,250.8c0,0-0.8-4.6-0.8-4.6c55.1,26.6,108.6,55.7,161.5,86.4c0,0-5.3,1.4-5.3,1.4
		c15.4-30.6,32.7-60.5,53.1-88.3C674.5,712.9,761.4,641.3,862.6,621.3L862.6,621.3z"/>
	<path class="st0" d="M693.4,542.2c0,0,0,0.3,0,0.3l0,0.3l-0.3,0.2c-65.9,54.4-132.1,114.3-194.7,172.2c0,0-4.1,3.7-4.1,3.7
		s-3.7-4.1-3.7-4.1C421.8,640.3,346.9,557.9,280,481c-68.6-80-141.1-158.1-210.4-236.6c0,0,10.4-229.1,10.4-229.1s0.3-5.9,0.3-5.9
		l6,0.6c0,0,223.4,21.2,223.4,21.2l3.1,0.3l2,2.5C442.5,200.7,570.8,372.4,693.4,542.2L693.4,542.2z M692.1,542.7
		C559.9,377.9,430.2,211,303.1,42.9c0,0,5.1,2.8,5.1,2.8l-223-24.4c0,0,6.3-5.3,6.3-5.3L74.8,244.7
		c80.9,88.1,178.2,195.2,265.8,287.6c51.7,55.9,107.7,118.7,158.2,175.2c0,0-7.8-0.4-7.8-0.4C554,651.1,625.2,590,692.1,542.7
		L692.1,542.7z"/>
	<path class="st0" d="M634.2,589.8C610,611,578.6,642,554.3,662.7c0,0-2.8,2.5-2.8,2.5s-2.7-2.7-2.7-2.7
		c-26.2-26.8-78.2-80.7-103.8-108C341,446.1,244.2,331.1,139.6,223.3c0,0,0.1-1.2,0.1-1.2s5.5-124.4,5.5-124.4s0.2-5.4,0.2-5.4
		s5.5,0.7,5.5,0.7l116.7,15.3c0,0,2.6,0.3,2.6,0.3s1.7,2.1,1.7,2.1L365,230.2C446.4,335.8,555.5,482.1,634.2,589.8L634.2,589.8z
		 M632.8,589.6C548.2,485.7,433.7,342.9,351.7,237c0,0-90.2-118.1-90.2-118.1l4.2,2.5c0,0-116.2-18.3-116.2-18.3s5.7-4.6,5.7-4.6
		l-10,124.1c94.5,101.4,209.3,216.2,308.6,323.9c25.4,27.3,76,83,100.9,110.8c0,0-5.5-0.3-5.5-0.3
		C573,637.8,608.2,608.8,632.8,589.6L632.8,589.6z"/>
	<path class="st0" d="M869.5,853.6c-13.5,42.6-54.6,68.9-94.3,84.5c-46.8-55-85.7-116.5-135.5-169.1c0-0.6-0.1-2.1-0.1-2.8
		c26.2-34.1,57.3-64.3,92.1-89.8c0,0,5.6-4.2,5.6-4.2l4.5,5.8C785.6,735.4,829,793.8,869.5,853.6L869.5,853.6z M868.1,853.8
		c-49.4-52.7-95.8-108.6-138-167.2c0,0,10.1,1.6,10.1,1.6c-34.2,23.6-65.3,51.4-94,81.6c0,0,0.9-2.4,0.9-2.4c0,0.4-0.8-2.3-0.8-2.3
		c40.8,57.5,91.7,106.7,135.6,161.6c0,0-6.9-1.9-6.9-1.9C811.4,910.6,848.7,889,868.1,853.8L868.1,853.8z"/>
	<path class="st0" d="M927.4,995.5c-18.3,14.1-43,15.8-65.2,18.2c-23.5,1.5-46.9,1.7-70.1-4.4c-19.2-22.8-18.8-52.5-17.1-80.1
		c36.8-14.2,72.3-40.7,87.5-77.8c0,0,1.1-2.9,1.1-2.9c28.7-10.2,66.6,4.2,84.7,27.9c4.2,10.5,3.3,23.1,3.2,33.3
		C950.1,939.4,943.8,970,927.4,995.5L927.4,995.5z M926.3,994.5c13.4-32.1,14.9-85.1,10-110.2c-14.9-16.5-42.9-28.7-65.2-24.4
		c0,0,3.9-3.8,3.9-3.8c-8.6,20.2-24.1,36.1-41.8,48.2c-17.4,11.7-36,20.8-55.4,28.4c0,0,1.4-1.8,1.4-1.8
		c-1.4,24.1,3.1,51.4,20.5,69.1c0,0-2.9-1.7-2.9-1.7c20.8,3.5,43.1,4.4,65,4.4C883.2,1001.9,906.5,1003.1,926.3,994.5L926.3,994.5z"
		/>
	<polygon class="st5" points="80,15.4 149.4,103 145.1,222.4 548.9,662.5 482.7,715.5 74.8,244.7 	"/>
	<polygon class="st5" points="149,113.3 254.3,133.6 624,597.7 632.8,589.6 266.6,114.9 150.1,98 	"/>
	<polygon class="st6" points="163.9,116.2 154.8,215.9 562.8,640.8 550.2,652.1 145.1,222.4 153.8,114.2 	"/>
	<polygon class="st6" points="90.9,22 90.4,28.6 145.1,97.7 145.4,92.4 270.1,108.7 304.9,45.4 	"/>
	<polygon class="st7" points="270.1,108.7 304.9,45.4 392.1,135.6 692.8,533.1 630,583.9 	"/>
	<path class="st0" d="M568.8,889.8c0,0,17.9-284.4,300-268.2C823.4,620.1,585.5,600.4,568.8,889.8z"/>
	<path class="st0" d="M668.6,801.6c0,0,91-30,103.6-67.2c13.5,12.1,17.2,16.3,17.2,16.3S693.6,800.2,682,818
		C673.8,807.9,668.6,801.6,668.6,801.6z"/>
	<path class="st0" d="M706.1,856.1c0,0,87.5-64,91.7-92.4c14,7.9,18.2,13.8,18.2,13.8s-82.7,57.9-97.3,86.3
		C711.3,871.9,706.1,856.1,706.1,856.1z"/>
	<path class="st0" d="M738.8,892.4c0,0,96.9-47.3,99.2-77.6c10.9,8.6,12,10.1,12,10.1s-88.2,69.6-95.3,78.1S738.8,892.4,738.8,892.4
		z"/>
	<path class="st0" d="M920.5,871.4c0,0,24.8,17.9-20.3,63.5c21.9-10.7,45.1-45.6,45.1-45.6s-2.3-19.1-2.7-19.6
		S920.5,871.4,920.5,871.4z"/>
	<path class="st0" d="M793.4,992.2c0,0,33.5,0.9,67.6-21.9c-28.3,19.1-51.5,36-61.8,35.4C789,1005.1,793.4,992.2,793.4,992.2z"/>
	<path class="st0" d="M413.9,805.1l402.1-326.5C816.1,478.6,588.2,645.1,413.9,805.1z"/>
	<path class="st8" d="M570.9,872.3c0,0,16.8-146.6,94.3-198.1c77.5-51.5,179.7-60.4,203.6-52.6C796,650.3,677.3,694.7,570.9,872.3z"
		/>
	<path class="st8" d="M942.6,869.7c-3.5,3.8-27.3,85.1-149.9,131c41.2,13.7,139.2-1.4,139.9-4.2c0.7-2.9,12.7-94.3,12.7-94.3
		L942.6,869.7z"/>
	<path class="st8" d="M751.7,703.3c0,0-44,37.9-45.6,48.6c-1.6,10.7,1.2,25.6,4.1,24.3s36.3-12.5,36.3-12.5s-26.3,29-27.7,34
		c-1.4,5,14.9,22,20,20.3c5.1-1.7,39-23.6,39-23.6s-23.9,40.5-23.2,43.4s12.1,21.1,15.7,22.3c3.6,1.3,45.7-15,45.7-15
		s-28.5,36.6-21.7,39.3c6.7,2.7,52.4,4.7,68.9-19.2c-26.4,30.5-53.4,48.5-88.2,59.5c-48.6-48.5-131.6-157.4-131.6-157.4l95.3-85.1
		L751.7,703.3z"/>
</g>
</svg>
